<?xml version="1.0" encoding="utf-8"?>
<!-- Generator: Adobe Illustrator 17.1.0, SVG Export Plug-In . SVG Version: 6.00 Build 0)  -->
<!DOCTYPE svg PUBLIC "-//W3C//DTD SVG 1.1//EN" "http://www.w3.org/Graphics/SVG/1.1/DTD/svg11.dtd">
<svg version="1.1" id="Layer_1" xmlns="http://www.w3.org/2000/svg" xmlns:xlink="http://www.w3.org/1999/xlink" x="0px" y="0px"
	 width="213px" height="241px" viewBox="0 0 213 241" enable-background="new 0 0 213 241" xml:space="preserve">
<g>
	<g>
		<path class="logo" d="M106.5,241.5c-1.7,0-3.3-0.4-4.8-1.3L5.2,184.5c-2.9-1.7-4.8-4.8-4.8-8.2V64.8c0-3.4,1.8-6.5,4.8-8.2l96.6-55.8
			c2.9-1.7,6.6-1.7,9.5,0l96.6,55.8c2.9,1.7,4.8,4.8,4.8,8.2v111.5c0,3.4-1.8,6.5-4.8,8.2l-96.6,55.8
			C109.8,241.1,108.2,241.5,106.5,241.5z M106.5,0.5c-1.5,0-3,0.4-4.2,1.1L5.7,57.4c-2.6,1.5-4.2,4.3-4.2,7.4v111.5
			c0,3,1.6,5.8,4.2,7.4l96.6,55.8c2.6,1.5,5.9,1.5,8.5,0l96.6-55.8c2.6-1.5,4.2-4.3,4.2-7.4V64.8c0-3-1.6-5.8-4.2-7.4L110.8,1.6
			C109.5,0.9,108,0.5,106.5,0.5z M106.5,222.2l-0.2-0.1l-87.8-50.7V69.7l0.2-0.1l87.8-50.7l0.2,0.1l87.8,50.7v101.7l-0.2,0.1
			L106.5,222.2z M19.4,170.8l87.1,50.3l87.1-50.3V70.2L106.5,20L19.4,70.2V170.8z"/>
	</g>
</g>
<g>
	<path class="logo" d="M140.2,163.2c-2.5,0-4.9-1-6.7-2.8L107,133.9l-26.5,26.5c-1.8,1.8-4.2,2.8-6.7,2.8c-2.5,0-4.9-1-6.7-2.8s-2.8-4.2-2.8-6.7
		s1-4.9,2.8-6.7l26.5-26.5L67,94c-1.8-1.8-2.8-4.2-2.8-6.7s1-4.9,2.8-6.7s4.2-2.8,6.7-2.8s4.9,1,6.7,2.8l26.5,26.5l26.5-26.5
		c1.8-1.8,4.2-2.8,6.7-2.8c2.5,0,4.9,1,6.7,2.8c1.8,1.8,2.8,4.2,2.8,6.7s-1,4.9-2.8,6.7l-26.5,26.5L147,147c1.8,1.8,2.8,4.2,2.8,6.7
		s-1,4.9-2.8,6.7C145.2,162.3,142.8,163.2,140.2,163.2z M107,132.5l27.2,27.2c1.6,1.6,3.7,2.5,6,2.5s4.4-0.9,6-2.5
		c1.6-1.6,2.5-3.7,2.5-6s-0.9-4.4-2.5-6L119,120.5l27.2-27.2c1.6-1.6,2.5-3.7,2.5-6s-0.9-4.4-2.5-6s-3.7-2.5-6-2.5
		c-2.3,0-4.4,0.9-6,2.5L107,108.5L79.8,81.3c-1.6-1.6-3.7-2.5-6-2.5s-4.4,0.9-6,2.5s-2.5,3.7-2.5,6s0.9,4.4,2.5,6L95,120.5
		l-27.2,27.2c-1.6,1.6-2.5,3.7-2.5,6s0.9,4.4,2.5,6s3.7,2.5,6,2.5c2.3,0,4.4-0.9,6-2.5L107,132.5z"/>
</g>
</svg>
